<?xml version="1.0" encoding="UTF-8"?>
<svg xmlns="http://www.w3.org/2000/svg" xmlns:xlink="http://www.w3.org/1999/xlink" width="50px" height="50px" viewBox="0 0 50 50" version="1.1">
<g id="surface1">
<path style=" stroke:none;fill-rule:nonzero;fill:rgb(20.784314%,52.549022%,79.607844%);fill-opacity:1;" d="M 50 25 C 50 11.191406 38.808594 0 25 0 C 11.191406 0 0 11.191406 0 25 C 0 38.808594 11.191406 50 25 50 C 38.808594 50 50 38.808594 50 25 Z M 50 25 "/>
<path style=" stroke:none;fill-rule:nonzero;fill:rgb(100%,100%,100%);fill-opacity:1;" d="M 46.90625 29.257812 C 46.773438 29.324219 44.871094 29.671875 44.871094 29.671875 C 43.949219 29.832031 43.011719 29.914062 42.074219 29.914062 L 19.75 29.914062 C 18.328125 29.914062 16.925781 29.609375 15.636719 29.011719 L 8.339844 25.652344 C 8.339844 25.652344 6.71875 24.25 6.511719 24.023438 C 5.703125 23.144531 5.117188 22.082031 4.804688 20.929688 L 3.945312 17.757812 L 3.796875 17.207031 L 3.480469 16.035156 L 5.664062 16.035156 L 6.460938 17.207031 L 6.835938 17.757812 L 8.707031 20.523438 L 13.332031 22.210938 C 15.0625 22.839844 16.890625 23.164062 18.734375 23.164062 L 39.714844 23.164062 C 40.546875 23.164062 41.359375 23.425781 42.027344 23.917969 C 42.410156 24.195312 42.738281 24.535156 42.996094 24.929688 L 43.21875 25.011719 L 46.757812 26.351562 C 47.015625 26.445312 47.242188 26.605469 47.417969 26.816406 C 47.71875 27.191406 47.835938 27.683594 47.734375 28.15625 C 47.636719 28.628906 47.332031 29.03125 46.90625 29.257812 Z M 46.90625 29.257812 "/>
<path style=" stroke:none;fill-rule:nonzero;fill:rgb(86.666667%,86.666667%,86.666667%);fill-opacity:1;" d="M 47.578125 28.589844 C 47.46875 28.804688 46.972656 29.222656 46.90625 29.257812 C 46.773438 29.324219 44.871094 29.671875 44.871094 29.671875 C 43.949219 29.832031 43.011719 29.914062 42.074219 29.914062 L 19.75 29.914062 C 18.433594 29.914062 17.136719 29.652344 15.925781 29.140625 C 15.828125 29.097656 15.730469 29.058594 15.636719 29.011719 L 14.714844 28.589844 L 8.339844 25.652344 C 8.339844 25.652344 6.746094 24.277344 6.550781 24.066406 L 6.511719 24.027344 C 5.699219 23.144531 5.113281 22.082031 4.804688 20.929688 L 3.480469 16.03125 L 4.0625 16.03125 L 4.800781 18.78125 C 5.117188 19.933594 5.703125 20.996094 6.511719 21.875 C 6.660156 22.039062 7.550781 22.820312 8.03125 23.234375 L 10.167969 22.132812 L 8.71875 23.679688 L 15.636719 26.867188 C 16.925781 27.460938 18.328125 27.765625 19.75 27.765625 L 42.074219 27.765625 C 43.011719 27.765625 43.949219 27.683594 44.871094 27.523438 L 46.476562 27.246094 C 46.625 27.21875 47.238281 26.894531 47.363281 26.757812 C 47.382812 26.777344 47.398438 26.796875 47.417969 26.820312 C 47.820312 27.324219 47.882812 28.019531 47.578125 28.589844 Z M 47.578125 28.589844 "/>
<path style=" stroke:none;fill-rule:nonzero;fill:rgb(98.823529%,27.058825%,50.588238%);fill-opacity:1;" d="M 47.578125 28.589844 C 47.464844 28.808594 47.296875 29 47.09375 29.140625 L 15.925781 29.140625 C 15.828125 29.097656 15.730469 29.058594 15.636719 29.011719 L 14.714844 28.589844 Z M 47.578125 28.589844 "/>
<path style=" stroke:none;fill-rule:nonzero;fill:rgb(100%,100%,100%);fill-opacity:1;" d="M 35.804688 26.660156 C 35.804688 26.660156 32.992188 28.703125 28.480469 26.660156 L 18.375 21.667969 L 17.261719 21.117188 L 16.410156 20.699219 C 16.316406 20.652344 16.265625 20.546875 16.289062 20.441406 C 16.3125 20.339844 16.402344 20.265625 16.507812 20.265625 L 19.953125 20.265625 C 19.972656 20.265625 19.988281 20.265625 20.003906 20.273438 C 20.199219 20.316406 21.492188 20.621094 23.277344 21.117188 C 23.863281 21.28125 24.503906 21.464844 25.175781 21.667969 C 29.085938 22.851562 34.0625 24.667969 35.804688 26.660156 Z M 35.804688 26.660156 "/>
<path style=" stroke:none;fill-rule:nonzero;fill:rgb(100%,100%,100%);fill-opacity:1;" d="M 6.039062 22.136719 L 1.222656 25.597656 L 3.480469 25.597656 L 10.167969 22.136719 Z M 6.039062 22.136719 "/>
<path style=" stroke:none;fill-rule:nonzero;fill:rgb(24.313726%,26.274511%,42.745098%);fill-opacity:1;" d="M 17.253906 25.597656 C 17.253906 24.976562 16.796875 24.476562 16.230469 24.476562 C 15.664062 24.476562 15.203125 24.976562 15.203125 25.597656 C 15.203125 26.214844 15.664062 26.714844 16.230469 26.714844 C 16.796875 26.714844 17.253906 26.214844 17.253906 25.597656 Z M 17.253906 25.597656 "/>
<path style=" stroke:none;fill-rule:nonzero;fill:rgb(24.313726%,26.274511%,42.745098%);fill-opacity:1;" d="M 20.183594 25.597656 C 20.183594 24.976562 19.726562 24.476562 19.160156 24.476562 C 18.59375 24.476562 18.132812 24.976562 18.132812 25.597656 C 18.132812 26.214844 18.59375 26.714844 19.160156 26.714844 C 19.726562 26.714844 20.183594 26.214844 20.183594 25.597656 Z M 20.183594 25.597656 "/>
<path style=" stroke:none;fill-rule:nonzero;fill:rgb(24.313726%,26.274511%,42.745098%);fill-opacity:1;" d="M 23.113281 25.597656 C 23.113281 24.976562 22.65625 24.476562 22.089844 24.476562 C 21.523438 24.476562 21.0625 24.976562 21.0625 25.597656 C 21.0625 26.214844 21.523438 26.714844 22.089844 26.714844 C 22.65625 26.714844 23.113281 26.214844 23.113281 25.597656 Z M 23.113281 25.597656 "/>
<path style=" stroke:none;fill-rule:nonzero;fill:rgb(24.313726%,26.274511%,42.745098%);fill-opacity:1;" d="M 26.042969 25.597656 C 26.042969 24.976562 25.585938 24.476562 25.019531 24.476562 C 24.453125 24.476562 23.992188 24.976562 23.992188 25.597656 C 23.992188 26.214844 24.453125 26.714844 25.019531 26.714844 C 25.585938 26.714844 26.042969 26.214844 26.042969 25.597656 Z M 26.042969 25.597656 "/>
<path style=" stroke:none;fill-rule:nonzero;fill:rgb(24.313726%,26.274511%,42.745098%);fill-opacity:1;" d="M 28.972656 25.597656 C 28.972656 24.976562 28.515625 24.476562 27.949219 24.476562 C 27.382812 24.476562 26.921875 24.976562 26.921875 25.597656 C 26.921875 26.214844 27.382812 26.714844 27.949219 26.714844 C 28.515625 26.714844 28.972656 26.214844 28.972656 25.597656 Z M 28.972656 25.597656 "/>
<path style=" stroke:none;fill-rule:nonzero;fill:rgb(24.313726%,26.274511%,42.745098%);fill-opacity:1;" d="M 31.902344 25.597656 C 31.902344 24.976562 31.445312 24.476562 30.878906 24.476562 C 30.3125 24.476562 29.851562 24.976562 29.851562 25.597656 C 29.851562 26.214844 30.3125 26.714844 30.878906 26.714844 C 31.445312 26.714844 31.902344 26.214844 31.902344 25.597656 Z M 31.902344 25.597656 "/>
<path style=" stroke:none;fill-rule:nonzero;fill:rgb(24.313726%,26.274511%,42.745098%);fill-opacity:1;" d="M 34.832031 25.597656 C 34.832031 24.976562 34.375 24.476562 33.808594 24.476562 C 33.242188 24.476562 32.78125 24.976562 32.78125 25.597656 C 32.78125 26.214844 33.242188 26.714844 33.808594 26.714844 C 34.375 26.714844 34.832031 26.214844 34.832031 25.597656 Z M 34.832031 25.597656 "/>
<path style=" stroke:none;fill-rule:nonzero;fill:rgb(24.313726%,26.274511%,42.745098%);fill-opacity:1;" d="M 39.039062 23.917969 L 40.390625 23.917969 C 40.503906 23.917969 40.59375 24.007812 40.59375 24.121094 L 40.59375 25.082031 C 40.59375 25.195312 40.503906 25.285156 40.390625 25.285156 L 39.039062 25.285156 C 38.929688 25.285156 38.835938 25.195312 38.835938 25.082031 L 38.835938 24.121094 C 38.835938 24.007812 38.929688 23.917969 39.039062 23.917969 Z M 39.039062 23.917969 "/>
<path style=" stroke:none;fill-rule:nonzero;fill:rgb(24.313726%,26.274511%,42.745098%);fill-opacity:1;" d="M 43.21875 25.011719 C 42.984375 25.191406 42.703125 25.285156 42.410156 25.285156 L 41.542969 25.285156 C 41.4375 25.28125 41.355469 25.199219 41.351562 25.09375 L 41.351562 24.109375 C 41.351562 24.003906 41.4375 23.917969 41.542969 23.914062 L 42.03125 23.914062 C 42.410156 24.191406 42.738281 24.53125 43 24.925781 Z M 43.21875 25.011719 "/>
<path style=" stroke:none;fill-rule:nonzero;fill:rgb(86.666667%,86.666667%,86.666667%);fill-opacity:1;" d="M 37.535156 27.515625 L 36.222656 27.515625 C 35.785156 27.515625 35.429688 27.160156 35.425781 26.71875 L 35.425781 24.960938 C 35.429688 24.519531 35.785156 24.164062 36.222656 24.164062 L 37.535156 24.164062 C 37.976562 24.164062 38.332031 24.523438 38.332031 24.960938 L 38.332031 26.71875 C 38.332031 27.15625 37.976562 27.515625 37.535156 27.515625 Z M 36.222656 24.460938 C 35.945312 24.460938 35.71875 24.6875 35.71875 24.964844 L 35.71875 26.722656 C 35.71875 27 35.945312 27.226562 36.222656 27.226562 L 37.535156 27.226562 C 37.8125 27.226562 38.039062 27 38.039062 26.722656 L 38.039062 24.964844 C 38.039062 24.6875 37.8125 24.464844 37.535156 24.460938 Z M 36.222656 24.460938 "/>
<path style=" stroke:none;fill-rule:nonzero;fill:rgb(100%,100%,100%);fill-opacity:1;" d="M 23.113281 31.183594 L 30.65625 31.183594 C 31.101562 31.183594 31.464844 30.824219 31.464844 30.378906 L 31.464844 28.570312 C 31.464844 28.128906 31.101562 27.765625 30.660156 27.765625 L 26.042969 27.765625 Z M 23.113281 31.183594 "/>
<path style=" stroke:none;fill-rule:nonzero;fill:rgb(98.823529%,27.058825%,50.588238%);fill-opacity:1;" d="M 31.464844 28.570312 L 31.5 28.570312 C 31.722656 28.570312 31.902344 28.753906 31.902344 28.976562 L 31.902344 30.109375 C 31.902344 30.332031 31.722656 30.511719 31.5 30.511719 L 31.464844 30.511719 Z M 31.464844 28.570312 "/>
<path style=" stroke:none;fill-rule:nonzero;fill:rgb(100%,100%,100%);fill-opacity:1;" d="M 30.144531 27.765625 C 28.605469 29.53125 24.539062 31.152344 20.917969 32.324219 C 20.304688 32.519531 19.710938 32.703125 19.140625 32.875 C 16.605469 33.628906 14.59375 34.101562 14.351562 34.15625 C 14.335938 34.160156 14.320312 34.164062 14.300781 34.164062 L 10.855469 34.164062 C 10.75 34.164062 10.65625 34.089844 10.632812 33.988281 C 10.609375 33.882812 10.660156 33.777344 10.757812 33.734375 L 12.492188 32.875 L 13.601562 32.324219 L 22.820312 27.765625 C 27.332031 25.726562 30.144531 27.765625 30.144531 27.765625 Z M 30.144531 27.765625 "/>
<path style=" stroke:none;fill-rule:nonzero;fill:rgb(92.156863%,92.941177%,92.941177%);fill-opacity:1;" d="M 31.332031 28.125 C 30.136719 29.238281 28 30.285156 25.683594 31.183594 L 24.148438 31.183594 C 26.710938 30.1875 29.058594 29.011719 30.144531 27.765625 L 30.65625 27.765625 C 30.929688 27.765625 31.179688 27.898438 31.332031 28.125 Z M 31.332031 28.125 "/>
<path style=" stroke:none;fill-rule:nonzero;fill:rgb(92.156863%,92.941177%,92.941177%);fill-opacity:1;" d="M 21.402344 23.164062 L 20.386719 22.660156 L 28.226562 22.660156 L 29.59375 23.164062 Z M 21.402344 23.164062 "/>
<path style=" stroke:none;fill-rule:nonzero;fill:rgb(98.823529%,27.058825%,50.588238%);fill-opacity:1;" d="M 20.917969 32.324219 C 20.304688 32.519531 19.710938 32.703125 19.140625 32.875 L 12.488281 32.875 L 13.601562 32.324219 Z M 20.917969 32.324219 "/>
<path style=" stroke:none;fill-rule:nonzero;fill:rgb(98.823529%,27.058825%,50.588238%);fill-opacity:1;" d="M 25.179688 21.667969 L 18.375 21.667969 L 17.261719 21.117188 L 23.28125 21.117188 C 23.867188 21.28125 24.511719 21.464844 25.179688 21.667969 Z M 25.179688 21.667969 "/>
<path style=" stroke:none;fill-rule:nonzero;fill:rgb(98.823529%,27.058825%,50.588238%);fill-opacity:1;" d="M 6.832031 17.757812 L 3.945312 17.757812 L 3.796875 17.203125 L 6.460938 17.203125 Z M 6.832031 17.757812 "/>
<path style=" stroke:none;fill-rule:nonzero;fill:rgb(100%,100%,100%);fill-opacity:1;" d="M 44.386719 13.882812 C 43.96875 13.882812 43.554688 13.964844 43.171875 14.121094 C 42.570312 12.613281 41.050781 11.6875 39.4375 11.84375 C 37.824219 12 36.511719 13.207031 36.214844 14.796875 C 34.847656 14.375 33.394531 15.132812 32.953125 16.496094 C 32.910156 16.496094 32.867188 16.496094 32.828125 16.496094 C 31.75 16.496094 30.878906 17.367188 30.878906 18.441406 C 30.878906 19.519531 31.75 20.390625 32.828125 20.390625 L 44.386719 20.390625 L 44.386719 20.386719 C 45.5625 20.40625 46.65625 19.792969 47.246094 18.777344 C 47.839844 17.765625 47.839844 16.511719 47.246094 15.496094 C 46.65625 14.484375 45.5625 13.867188 44.386719 13.886719 Z M 44.386719 13.882812 "/>
<path style=" stroke:none;fill-rule:nonzero;fill:rgb(100%,100%,100%);fill-opacity:1;" d="M 17.984375 39.832031 C 18.402344 39.832031 18.8125 39.914062 19.199219 40.070312 C 19.800781 38.566406 21.320312 37.636719 22.933594 37.792969 C 24.546875 37.953125 25.859375 39.15625 26.15625 40.75 C 27.523438 40.328125 28.976562 41.082031 29.417969 42.445312 C 29.460938 42.445312 29.503906 42.4375 29.542969 42.4375 C 30.269531 42.390625 30.964844 42.75 31.34375 43.375 C 31.722656 43.996094 31.722656 44.777344 31.34375 45.402344 C 30.964844 46.027344 30.269531 46.386719 29.542969 46.335938 L 17.984375 46.335938 L 17.984375 46.328125 C 16.210938 46.300781 14.789062 44.855469 14.789062 43.082031 C 14.789062 41.308594 16.210938 39.863281 17.984375 39.832031 Z M 17.984375 39.832031 "/>
<path style=" stroke:none;fill-rule:nonzero;fill:rgb(100%,100%,100%);fill-opacity:1;" d="M 11.570312 5.75 C 11.992188 5.75 12.40625 5.832031 12.792969 5.988281 C 13.394531 4.484375 14.917969 3.558594 16.527344 3.714844 C 18.140625 3.875 19.453125 5.078125 19.75 6.671875 C 21.117188 6.25 22.566406 7.007812 23.007812 8.367188 C 23.050781 8.367188 23.09375 8.367188 23.136719 8.367188 C 24.164062 8.4375 24.957031 9.289062 24.957031 10.316406 C 24.957031 11.34375 24.164062 12.195312 23.136719 12.265625 L 11.570312 12.265625 L 11.570312 12.257812 C 10.398438 12.277344 9.304688 11.664062 8.710938 10.648438 C 8.117188 9.636719 8.117188 8.382812 8.710938 7.367188 C 9.304688 6.355469 10.398438 5.742188 11.570312 5.761719 Z M 11.570312 5.75 "/>
</g>
</svg>
